HIERARCHY
ROOT root
{
	OFFSET 0.000000 0.000000 0.000000
	CHANNELS 6 Xposition Yposition Zposition Zrotation Yrotation Xrotation
	JOINT lhip
	{
		OFFSET 0.058581 -0.082280 -0.017664
		CHANNELS 3 Zrotation Yrotation Xrotation
		JOINT lknee
		{
			OFFSET 0.043451 -0.386469 0.008037
			CHANNELS 3 Zrotation Yrotation Xrotation
			JOINT lankle
			{
				OFFSET -0.014790 -0.426874 -0.037428
				CHANNELS 3 Zrotation Yrotation Xrotation
				JOINT ltoe
				{
					OFFSET 0.041054 -0.060286 0.122042
					CHANNELS 3 Zrotation Yrotation Xrotation
					End Site
					{
						OFFSET 0.000000 0.000000 0.000000
					}
				}
			}
		}
	}
	JOINT rhip
	{
		OFFSET -0.060310 -0.090513 -0.013543
		CHANNELS 3 Zrotation Yrotation Xrotation
		JOINT rknee
		{
			OFFSET -0.043257 -0.383688 -0.004843
			CHANNELS 3 Zrotation Yrotation Xrotation
			JOINT rankle
			{
				OFFSET 0.019056 -0.420046 -0.034562
				CHANNELS 3 Zrotation Yrotation Xrotation
				JOINT rtoe
				{
					OFFSET -0.034840 -0.062106 0.130323
					CHANNELS 3 Zrotation Yrotation Xrotation
					End Site
					{
						OFFSET 0.000000 0.000000 0.000000
					}
				}
			}
		}
	}
	JOINT lowerback
	{
		OFFSET 0.004439 0.124404 -0.038385
		CHANNELS 3 Zrotation Yrotation Xrotation
		JOINT upperback
		{
			OFFSET 0.004488 0.137956 0.026820
			CHANNELS 3 Zrotation Yrotation Xrotation
			JOINT chest
			{
				OFFSET -0.002265 0.056032 0.002855
				CHANNELS 3 Zrotation Yrotation Xrotation
				JOINT lowerneck
				{
					OFFSET -0.013390 0.211636 -0.033468
					CHANNELS 3 Zrotation Yrotation Xrotation
					JOINT upperneck
					{
						OFFSET 0.010113 0.088937 0.050410
						CHANNELS 3 Zrotation Yrotation Xrotation
						End Site
						{
							OFFSET 0.000000 0.000000 0.000000
						}
					}
				}
				JOINT lclavicle
				{
					OFFSET 0.071702 0.114000 -0.018898
					CHANNELS 3 Zrotation Yrotation Xrotation
					JOINT lshoulder
					{
						OFFSET 0.122921 0.045205 -0.019046
						CHANNELS 3 Zrotation Yrotation Xrotation
						JOINT lelbow
						{
							OFFSET 0.255332 -0.015649 -0.022946
							CHANNELS 3 Zrotation Yrotation Xrotation
							JOINT lwrist
							{
								OFFSET 0.265709 0.012698 -0.007375
								CHANNELS 3 Zrotation Yrotation Xrotation
								End Site
								{
									OFFSET 0.000000 0.000000 0.000000
								}
							}
						}
					}
				}
				JOINT rclavicle
				{
					OFFSET -0.082954 0.112472 -0.023707
					CHANNELS 3 Zrotation Yrotation Xrotation
					JOINT rshoulder
					{
						OFFSET -0.113228 0.046853 -0.008472
						CHANNELS 3 Zrotation Yrotation Xrotation
						JOINT relbow
						{
							OFFSET -0.260127 -0.014369 -0.031269
							CHANNELS 3 Zrotation Yrotation Xrotation
							JOINT rwrist
							{
								OFFSET -0.269108 0.006794 -0.006027
								CHANNELS 3 Zrotation Yrotation Xrotation
								End Site
								{
									OFFSET 0.000000 0.000000 0.000000
								}
							}
						}
					}
				}
			}
		}
	}
}
MOTION
Frames: 14
Frame Time: 0.033333
-1.417379 0.218611 0.983146 80.017976 -2.375417 90.741975 3.972001 -4.164746 -23.912777 -5.995728 3.265421 26.006331 2.291293 6.753630 -10.476196 0.000000 -0.000000 0.000000 0.632349 -1.734219 0.572654 0.082195 3.737576 13.754343 -0.987826 -10.183269 -18.650240 0.000000 -0.000000 0.000000 -0.986475 4.345080 7.944705 4.569259 -5.298679 -0.335293 -0.869943 -2.310905 2.907808 3.542751 -3.841230 2.460568 -6.014104 -8.905973 16.285777 -24.738085 14.796724 1.030627 -54.569658 3.000234 5.658108 11.774583 -42.012633 11.234614 -5.987223 -4.857957 -12.005139 25.076761 -8.643770 -8.956484 33.841903 16.772030 -3.121216 -78.905336 42.880275 -56.332466 5.752246 8.548611 -2.765609 
-1.403106 0.218850 0.980525 78.662592 -2.204139 91.174771 4.766014 -3.452812 -24.956522 -5.160104 3.435121 20.772635 1.512585 7.138158 -7.713975 0.000000 -0.000000 0.000000 0.459087 -1.719133 0.974611 0.124764 4.482356 13.873808 -0.837200 -9.956211 -19.369685 0.000000 -0.000000 0.000000 -0.725062 4.468010 8.642995 3.908991 -4.287675 -1.142645 -0.813154 -1.945821 3.005650 3.301697 -4.537273 3.376270 -5.037718 -9.358646 16.088866 -24.935812 14.655826 1.102887 -54.037583 3.267687 5.982929 11.145846 -40.952582 12.139119 -5.697448 -4.676890 -11.727730 24.746384 -7.821137 -7.473688 34.894790 15.436214 -0.294878 -72.007595 48.139160 -46.665039 6.323050 8.203510 1.733127 
-1.389123 0.219610 0.977422 77.842341 -2.090784 91.104106 5.474559 -3.206604 -25.422284 -4.239160 3.217327 15.864787 1.021054 6.979720 -3.655883 0.000000 -0.000000 0.000000 0.056396 -1.828616 2.038628 0.368259 5.090179 13.839195 -1.108298 -9.708145 -19.788401 0.000000 -0.000000 0.000000 -0.765726 4.645645 8.924378 3.433792 -3.844806 -0.128338 -0.758224 -1.306013 2.645140 3.134942 -4.897835 4.065679 -4.211461 -10.099033 15.958234 -25.040666 13.759733 1.678020 -53.851483 2.778720 6.642121 11.687726 -40.195261 11.520483 -5.220623 -4.098659 -11.833394 24.668363 -5.293853 -5.399986 36.466327 15.688828 1.451035 -60.512548 47.536258 -35.167860 6.273179 7.326467 3.853892 
-1.369296 0.221220 0.973226 77.772379 -1.695127 90.789771 6.483626 -3.585428 -25.531844 -3.349627 2.355438 9.902106 0.820717 7.092244 -3.709600 0.000000 -0.000000 0.000000 -0.234916 -2.504901 4.200175 0.484059 5.099845 13.019276 -0.523300 -9.053334 -20.363362 0.000000 -0.000000 0.000000 -0.605537 5.369182 10.050286 2.981776 -3.254102 0.266537 -0.501387 -0.546377 2.503394 3.386426 -5.683180 3.968451 -3.692997 -12.461081 17.004590 -24.762427 12.873256 1.765396 -54.099288 1.645510 7.938575 12.272303 -39.537639 11.556765 -6.962328 -4.674394 -11.558911 25.081757 -2.303861 -4.329961 37.954144 16.602647 2.469861 -44.594282 39.271645 -21.241686 9.195991 5.972834 4.224468 
-1.353698 0.222561 0.970041 77.205824 -1.647045 91.087286 6.786540 -3.288636 -25.735052 -2.878430 1.651747 7.219404 0.601229 7.084496 -4.235773 0.000000 -0.000000 0.000000 -0.732017 -2.704578 5.069662 0.520575 5.552389 12.741418 -0.016401 -8.557129 -20.791791 0.000000 -0.000000 0.000000 -0.982254 5.802679 9.785219 2.783863 -2.202404 0.629026 -0.193355 0.051298 2.056488 3.413347 -6.218821 4.515631 -3.719498 -13.042406 17.188218 -24.988492 12.908936 1.764096 -53.708516 1.038562 8.511390 12.153004 -39.756866 11.809763 -8.022776 -4.409174 -11.657941 25.578867 -1.141585 -3.188749 38.027433 16.780240 2.760512 -36.397510 33.264255 -16.043308 10.775444 3.322874 1.774900 
-1.330592 0.225836 0.965362 77.526700 -1.731372 91.406239 6.630774 -3.326617 -26.254840 -2.627126 0.440225 5.609002 0.444879 6.697014 -4.213481 0.000000 -0.000000 0.000000 -1.561360 -3.184452 6.329204 0.592377 5.646859 12.605605 0.518663 -8.022731 -21.058430 0.000000 -0.000000 0.000000 -0.858362 6.389693 9.938734 2.399894 -1.108944 0.009196 -0.232189 0.725487 1.833792 3.207243 -7.626497 5.951711 -3.457660 -14.778511 17.948948 -24.846911 12.747602 1.830582 -53.501522 0.262826 9.443353 12.514187 -39.973746 11.391290 -9.199479 -4.506870 -11.343542 25.244560 0.080385 -1.281631 39.583801 16.443037 2.500936 -28.639756 24.059577 -15.820065 12.618894 2.771091 -4.717489 
-1.303972 0.230960 0.961159 78.192414 -2.185226 91.190218 5.853053 -3.701623 -26.518998 -2.937153 0.021655 7.007564 0.734313 6.849953 -4.539842 0.000000 -0.000000 0.000000 -2.845412 -3.676993 8.049421 0.513115 5.764198 12.983821 1.601116 -7.360156 -20.836684 0.000000 -0.000000 0.000000 -0.334918 6.973090 10.977126 1.747953 -0.380372 -0.542303 -0.717743 1.058506 1.795638 3.352027 -8.918812 5.923702 -3.210060 -15.600183 18.088945 -25.272629 13.222313 0.931718 -52.702566 -0.462880 9.553059 12.482297 -40.568226 10.519887 -9.457920 -4.452808 -11.084044 25.085520 0.181490 -1.168000 42.288538 16.124918 1.367846 -22.790512 14.574797 -23.370083 12.051932 2.143737 -14.766871 
-1.273256 0.236500 0.958543 78.693986 -2.754547 91.357037 4.734236 -4.142463 -26.458942 -3.630264 -0.197547 9.829418 1.457413 7.163082 -5.489818 0.000000 -0.000000 0.000000 -4.197112 -3.874861 9.128140 0.347991 5.850406 14.161622 2.890333 -6.753155 -19.741925 0.000000 -0.000000 0.000000 -0.501178 7.505575 11.002150 1.752660 0.199457 -1.121392 -1.134604 1.211891 2.095861 3.531508 -10.315375 6.775967 -3.334049 -16.844823 18.417069 -25.940128 14.457402 0.052133 -52.299545 -1.164591 9.867072 12.949383 -40.893261 8.724209 -6.675919 -4.237945 -11.735474 26.388425 -0.850138 -1.810013 44.373879 16.154393 -0.195903 -19.974006 5.699530 -32.640710 7.394488 1.006586 -19.674333 
-1.239030 0.243026 0.957342 80.375494 -3.193574 91.894510 3.293404 -5.011996 -26.329498 -3.873509 0.569054 11.805330 1.898582 6.656391 -4.589422 0.000000 -0.000000 0.000000 -4.964123 -4.017600 9.620561 -0.037820 5.113051 16.016720 3.905313 -6.794125 -17.563972 0.000000 -0.000000 0.000000 -0.808205 7.650584 9.785835 2.370930 -0.217529 -1.087831 -1.392337 1.055849 2.464056 3.374471 -11.034752 7.427434 -3.653127 -17.493130 19.010607 -26.179347 15.760314 0.466125 -53.092587 -1.720725 9.797186 14.242677 -41.053474 6.380742 -3.753664 -3.880531 -13.119310 28.382398 -2.988411 -1.833678 46.419612 15.621272 -0.889896 -20.742515 1.973883 -38.340001 3.730710 0.044125 -21.897710 
-1.194346 0.253605 0.961181 82.910935 -4.021412 92.423368 1.055858 -6.097183 -26.010508 -4.209288 -0.916316 12.935086 2.393357 6.194746 -3.784417 0.000000 -0.000000 0.000000 -5.920474 -3.867504 9.110038 -0.708030 4.240212 20.561360 5.685281 -6.695710 -11.493306 0.000000 -0.000000 0.000000 -1.381330 7.143010 9.507299 3.117737 -0.940651 -2.004753 -1.381006 0.283657 2.894159 2.590076 -11.562673 8.128006 -4.059701 -16.592544 18.691251 -26.137301 17.536525 0.898206 -54.618174 -1.470349 9.282161 14.510451 -39.859313 5.971411 -0.840960 -3.130033 -15.405498 30.407362 -6.488043 -2.837195 49.017166 13.807827 -0.638145 -22.711386 1.820460 -43.514882 -0.686176 -0.125801 -24.041575 
-1.153238 0.262771 0.964755 85.930470 -4.278072 92.095159 -0.132706 -7.848719 -24.464264 -5.097423 -2.097729 14.481628 2.928708 4.847026 -4.324523 0.000000 -0.000000 0.000000 -5.952082 -4.053821 8.136964 -0.909427 3.740353 26.200069 6.493407 -7.399274 -3.781011 0.000000 -0.000000 0.000000 -1.760649 6.729539 8.069257 4.397160 -2.593560 -1.295268 -1.152167 -0.804955 3.490698 1.914232 -11.882034 9.005674 -4.207464 -15.548684 17.709026 -26.047295 18.413331 1.588921 -56.005100 -1.203182 9.298739 14.505908 -38.603081 6.005335 -0.612136 -2.988350 -15.398480 31.110206 -8.809955 -3.874295 49.987473 12.691878 -1.085640 -23.733284 1.023306 -48.296301 -1.017111 0.537597 -27.174987 
-1.118040 0.271408 0.969076 86.296347 -4.738605 91.738527 -1.462112 -7.724595 -22.035494 -5.753257 -3.127746 14.350921 4.414237 4.775326 -4.779567 0.000000 -0.000000 0.000000 -6.387565 -2.826348 3.684735 -0.876944 4.021066 35.680931 6.775288 -7.956913 6.826019 0.000000 -0.000000 0.000000 -2.884724 5.546752 8.166158 5.195785 -2.332807 -0.859156 -0.948618 -1.882077 3.773013 2.136055 -11.479860 8.322034 -5.001230 -13.882877 17.708492 -25.834975 19.584288 1.715123 -56.455415 -0.675295 9.149115 13.012865 -37.815768 8.145959 -1.748767 -3.450427 -14.272798 31.801330 -10.646925 -5.546059 50.446834 12.565118 -1.047715 -24.407906 0.002233 -53.093322 -0.694549 0.688501 -29.781911 
-1.083440 0.279020 0.971895 87.123638 -5.260855 92.020477 -2.799426 -8.977611 -20.413296 -5.970298 -3.381948 14.607110 6.184340 5.331569 -5.556847 0.000000 -0.000000 0.000000 -6.730827 -0.754539 -2.096738 0.209173 3.596908 45.061697 6.155906 -11.216871 16.857706 0.000000 -0.000000 0.000000 -3.942793 3.711752 7.481957 5.606127 -2.722873 -1.713292 -0.932697 -2.590309 4.397212 0.688716 -12.784686 10.941891 -4.173784 -10.868293 16.337509 -23.993228 18.924219 4.583772 -57.652564 0.378089 6.717622 11.311921 -37.255073 11.409399 -1.500627 -4.565768 -12.309839 30.528048 -10.453986 -4.714154 50.907734 11.700379 -2.878113 -24.498526 -0.634059 -58.949751 -1.199502 1.972694 -31.476883 
-1.048922 0.284993 0.974697 88.674058 -5.185741 91.393172 -4.097263 -8.719307 -17.814789 -6.238539 -5.391420 15.072397 8.171749 5.615415 -6.341372 0.000000 -0.000000 0.000000 -6.520011 -0.594582 -7.060888 1.879021 3.259024 53.281585 3.355417 -14.057115 18.358462 0.000000 -0.000000 0.000000 -4.009920 2.211971 8.021751 5.981019 -3.523075 -1.965055 -1.137046 -3.655758 5.029810 0.633329 -12.363649 10.420659 -4.414340 -9.040991 16.149362 -24.107871 18.564844 5.010259 -56.309198 0.745548 6.636445 9.102940 -35.869335 13.714703 -1.415398 -4.557358 -10.716486 30.595873 -11.108443 -5.958281 50.006608 11.156272 -3.355662 -25.098462 -0.587768 -63.060964 -2.127789 2.361135 -33.382055 
